# xmcd
#
# Track frame offsets:
#	150
#	15897
#	31204
#	47630
#	68693
#	86119
#	98299
#	112559
#	126163
#	140254
#	155759
#	168457
#	187833
#	203971
#	217325
#	232495
#	249203
#	267752
#	281043
#
# Disc length: 3803 seconds
#
# Revision: 3
# Processed by: cddbd v1.5.2PL0 Copyright (c) Steve Scherf et al.
# Submitted via: audiograbber 1.81.02
#
DISCID=010ed913
DTITLE=Various Artist - CDX Volume 178 - January 1998
DYEAR=1998
DGENRE=Country
TTITLE0=Alan Jackson - A House With No Curtains
TTITLE1=Jo Dee Messina - Bye Bye
TTITLE2=Bellamy Brothers - Catahoula
TTITLE3=Ricochet - Connected At The Heart
TTITLE4=Chris Knight - Framed
TTITLE5=Smokin' Armadillos - I Don't Want No Part Of It
TTITLE6=Trace Adkins - Lonely Won't Leave Me Alone
TTITLE7=Trisha Yearwood - Perfect Love
TTITLE8=George Strait - Round About Way
TTITLE9=Lonestar - Say When
TTITLE10=Garth Brooks - She's Gonna Make It
TTITLE11=Chris Knight - Something Changed
TTITLE12=John Anderson - Takin' The Country Back
TTITLE13=Vern Gosdin - Three Or Four Times A Day
TTITLE14=Michael Peterson - Too Good To Be True
TTITLE15=Mindy McCready - You'll Never Know
TTITLE16=Wayne Toups - If This Ain't The Real Thing
TTITLE17=Kacey Jones - I Miss My Man
TTITLE18=Kacey Jones - Comedy bit
EXTD=YEAR: 1998
EXTT0=
EXTT1=
EXTT2=
EXTT3=
EXTT4=
EXTT5=
EXTT6=
EXTT7=
EXTT8=
EXTT9=
EXTT10=
EXTT11=
EXTT12=
EXTT13=
EXTT14=
EXTT15=
EXTT16=
EXTT17=
EXTT18=
PLAYORDER=
